<?xml version="1.0" encoding="us-ascii" standalone="no"?><svg xmlns="http://www.w3.org/2000/svg" xmlns:xlink="http://www.w3.org/1999/xlink" contentStyleType="text/css" height="760px" preserveAspectRatio="none" style="width:375px;height:760px;background:#FFFFFF;" version="1.1" viewBox="0 0 375 760" width="375px" zoomAndPan="magnify"><defs/><g><!--cluster Montres_ecommerce--><g id="cluster_Montres_ecommerce"><rect fill="none" height="747" rx="2.5" ry="2.5" style="stroke:#181818;stroke-width:1.0;" width="228" x="141" y="7"/><text fill="#000000" font-family="sans-serif" font-size="14" font-weight="bold" lengthAdjust="spacing" textLength="149" x="180.5" y="23.5332">Montres_ecommerce</text></g><g id="elem_UC_Browse"><ellipse cx="255.1756" cy="63.1351" fill="#F1F1F1" rx="88.6756" ry="20.1351" style="stroke:#181818;stroke-width:0.5;"/><text fill="#000000" font-family="sans-serif" font-size="14" lengthAdjust="spacing" textLength="135" x="187.6756" y="66.8636">Parcourir les montres</text></g><g id="elem_UC_Search"><ellipse cx="254.837" cy="139.9674" fill="#F1F1F1" rx="97.837" ry="21.9674" style="stroke:#181818;stroke-width:0.5;"/><text fill="#000000" font-family="sans-serif" font-size="14" lengthAdjust="spacing" textLength="156" x="176.837" y="143.6959">Rechercher des montres</text></g><g id="elem_UC_AddCart"><ellipse cx="254.896" cy="214.9792" fill="#F1F1F1" rx="77.896" ry="17.9792" style="stroke:#181818;stroke-width:0.5;"/><text fill="#000000" font-family="sans-serif" font-size="14" lengthAdjust="spacing" textLength="109" x="198.4355" y="219.2466">Ajouter au panier</text></g><g id="elem_UC_ViewCart"><ellipse cx="254.7688" cy="284.1538" fill="#F1F1F1" rx="68.7688" ry="16.1538" style="stroke:#181818;stroke-width:0.5;"/><text fill="#000000" font-family="sans-serif" font-size="14" lengthAdjust="spacing" textLength="84" x="209.7688" y="288.6704">Voir le panier</text></g><g id="elem_UC_Checkout"><ellipse cx="254.7827" cy="353.9565" fill="#F1F1F1" rx="80.2827" ry="18.4565" style="stroke:#181818;stroke-width:0.5;"/><text fill="#000000" font-family="sans-serif" font-size="14" lengthAdjust="spacing" textLength="115" x="196.4192" y="357.9341">Passer &#224; la caisse</text></g><g id="elem_UC_Order"><ellipse cx="255.097" cy="426.1194" fill="#F1F1F1" rx="81.097" ry="18.6194" style="stroke:#181818;stroke-width:0.5;"/><text fill="#000000" font-family="sans-serif" font-size="14" lengthAdjust="spacing" textLength="117" x="196.0843" y="429.9982">Passer commande</text></g><g id="elem_UC_Review"><ellipse cx="255.1476" cy="496.9295" fill="#F1F1F1" rx="72.6476" ry="16.9295" style="stroke:#181818;stroke-width:0.5;"/><text fill="#000000" font-family="sans-serif" font-size="14" lengthAdjust="spacing" textLength="95" x="204.6476" y="501.4461">Laisser un avis</text></g><g id="elem_UC_ManageProducts"><ellipse cx="254.8789" cy="567.8758" fill="#F1F1F1" rx="79.8789" ry="18.3758" style="stroke:#181818;stroke-width:0.5;"/><text fill="#000000" font-family="sans-serif" font-size="14" lengthAdjust="spacing" textLength="114" x="196.8373" y="571.9024">G&#233;rer les produits</text></g><g id="elem_UC_ManageOrders"><ellipse cx="254.8974" cy="641.9795" fill="#F1F1F1" rx="90.3974" ry="20.4795" style="stroke:#181818;stroke-width:0.5;"/><text fill="#000000" font-family="sans-serif" font-size="14" lengthAdjust="spacing" textLength="139" x="185.3974" y="645.708">G&#233;rer les commandes</text></g><g id="elem_UC_ManageUsers"><ellipse cx="254.9661" cy="717.7932" fill="#F1F1F1" rx="86.9661" ry="19.7932" style="stroke:#181818;stroke-width:0.5;"/><text fill="#000000" font-family="sans-serif" font-size="14" lengthAdjust="spacing" textLength="131" x="189.4661" y="721.5217">G&#233;rer les utilisateurs</text></g><!--entity Client--><g id="elem_Client"><ellipse cx="51.5" cy="253.5" fill="#F1F1F1" rx="8" ry="8" style="stroke:#181818;stroke-width:0.5;"/><path d="M51.5,261.5 L51.5,288.5 M38.5,269.5 L64.5,269.5 M51.5,288.5 L38.5,303.5 M51.5,288.5 L64.5,303.5 " fill="none" style="stroke:#181818;stroke-width:0.5;"/><text fill="#000000" font-family="sans-serif" font-size="14" lengthAdjust="spacing" textLength="36" x="33.5" y="319.5332">Client</text></g><!--entity Administrateur--><g id="elem_Administrateur"><ellipse cx="51.5" cy="611.5" fill="#F1F1F1" rx="8" ry="8" style="stroke:#181818;stroke-width:0.5;"/><path d="M51.5,619.5 L51.5,646.5 M38.5,627.5 L64.5,627.5 M51.5,646.5 L38.5,661.5 M51.5,646.5 L64.5,661.5 " fill="none" style="stroke:#181818;stroke-width:0.5;"/><text fill="#000000" font-family="sans-serif" font-size="14" lengthAdjust="spacing" textLength="91" x="6" y="677.5332">Administrateur</text></g><!--link Client to UC_Browse--><g id="link_Client_UC_Browse"><path d="M59.58,244.9 C69.14,203.24 90.17,138.15 133,100 C146.62,87.87 164.12,79.72 181.56,74.24 " fill="none" id="Client-UC_Browse" style="stroke:#181818;stroke-width:1.0;"/></g><!--link Client to UC_Search--><g id="link_Client_UC_Search"><path d="M69.72,252.24 C83.88,228.9 105.97,198.06 133,179 C147.88,168.51 165.74,160.72 183.1,155 " fill="none" id="Client-UC_Search" style="stroke:#181818;stroke-width:1.0;"/></g><!--link Client to UC_AddCart--><g id="link_Client_UC_AddCart"><path d="M69.54,276.11 C85.68,268.8 110.69,257.91 133,250 C155.57,242 180.97,234.44 202.65,228.41 " fill="none" id="Client-UC_AddCart" style="stroke:#181818;stroke-width:1.0;"/></g><!--link Client to UC_ViewCart--><g id="link_Client_UC_ViewCart"><path d="M69.68,284 C95.19,284 144.49,284 185.69,284 " fill="none" id="Client-UC_ViewCart" style="stroke:#181818;stroke-width:1.0;"/></g><!--link Client to UC_Checkout--><g id="link_Client_UC_Checkout"><path d="M69.6,291.55 C85.77,298.56 110.81,309.08 133,317 C155.96,325.2 181.76,333.24 203.62,339.73 " fill="none" id="Client-UC_Checkout" style="stroke:#181818;stroke-width:1.0;"/></g><!--link Client to UC_Order--><g id="link_Client_UC_Order"><path d="M69.53,316.24 C83.59,339.9 105.64,371.07 133,390 C149.76,401.6 170.31,409.52 189.69,414.91 " fill="none" id="Client-UC_Order" style="stroke:#181818;stroke-width:1.0;"/></g><!--link Client to UC_Review--><g id="link_Client_UC_Review"><path d="M60.11,323.08 C70,363.54 91.21,425.8 133,462 C148.95,475.82 170.07,484.19 190.19,489.26 " fill="none" id="Client-UC_Review" style="stroke:#181818;stroke-width:1.0;"/></g><!--link Administrateur to UC_ManageProducts--><g id="link_Administrateur_UC_ManageProducts"><path d="M97.11,619.47 C108.65,614.05 121.16,608.52 133,604 C155.01,595.59 179.87,587.89 201.31,581.8 " fill="none" id="Administrateur-UC_ManageProducts" style="stroke:#181818;stroke-width:1.0;"/></g><!--link Administrateur to UC_ManageOrders--><g id="link_Administrateur_UC_ManageOrders"><path d="M97.22,642 C117.05,642 141.12,642 164.39,642 " fill="none" id="Administrateur-UC_ManageOrders" style="stroke:#181818;stroke-width:1.0;"/></g><!--link Administrateur to UC_ManageUsers--><g id="link_Administrateur_UC_ManageUsers"><path d="M97.16,664.41 C108.7,669.83 121.2,675.39 133,680 C154.33,688.34 178.3,696.17 199.24,702.54 " fill="none" id="Administrateur-UC_ManageUsers" style="stroke:#181818;stroke-width:1.0;"/></g><!--SRC=[VP8zRW8n48Lxds94po785ZH1GKJGef4zOPtiscWyXYBANTBc75mitb-jDu72XP-_Dnw_SKLl0kA1xQaKC9P9Y_LEeHRFK5IMdFIRbQcjiq4OXI8hrQ3eJXN1OkETC8KZQL_Nn9eMyAa0OY2D8PrlaRMFR1ag2b1tz08mmBuuFh6_1fhYEz9bgf8McB_yAwLgvPHVlVie2SO8PtIMU41NnXJ8CcKFlkrY1XuiNUVa5aD8HM_VK25ej6atu4L9-YFT-G_U983EZEWB6-8fzznMOeWEy6B7L-teadgOWklR3rENs9czYLP6U8CEJxHjL2tXZcdePEPg6xhdYM8h6ze1pspxqBY-bEh-12oNazbbMZ-VJ1i6aObZw9awPfkfNOoPr2Ucyd_P7yuIUi3qUJmWsgV_0W00]--></g></svg>