<?xml version="1.0" encoding="us-ascii" standalone="no"?><svg xmlns="http://www.w3.org/2000/svg" xmlns:xlink="http://www.w3.org/1999/xlink" contentStyleType="text/css" height="265px" preserveAspectRatio="none" style="width:275px;height:265px;background:#FFFFFF;" version="1.1" viewBox="0 0 275 265" width="275px" zoomAndPan="magnify"><defs/><g><!--entity Customer--><g id="elem_Customer"><ellipse cx="36.5" cy="147" fill="#F1F1F1" rx="8" ry="8" style="stroke:#181818;stroke-width:0.5;"/><path d="M36.5,155 L36.5,182 M23.5,163 L49.5,163 M36.5,182 L23.5,197 M36.5,182 L49.5,197 " fill="none" style="stroke:#181818;stroke-width:0.5;"/><text fill="#000000" font-family="sans-serif" font-size="14" lengthAdjust="spacing" textLength="61" x="6" y="213.0332">Customer</text></g><!--entity Admin--><g id="elem_Admin"><ellipse cx="36.5" cy="14" fill="#F1F1F1" rx="8" ry="8" style="stroke:#181818;stroke-width:0.5;"/><path d="M36.5,22 L36.5,49 M23.5,30 L49.5,30 M36.5,49 L23.5,64 M36.5,49 L49.5,64 " fill="none" style="stroke:#181818;stroke-width:0.5;"/><text fill="#000000" font-family="sans-serif" font-size="14" lengthAdjust="spacing" textLength="39" x="17" y="80.0332">Admin</text></g><g id="elem_UC_AddCart"><ellipse cx="198.1242" cy="111.6042" fill="#F1F1F1" rx="63.1242" ry="15.6042" style="stroke:#181818;stroke-width:0.5;"/><text fill="#000000" font-family="sans-serif" font-size="14" lengthAdjust="spacing" textLength="72" x="159.1242" y="116.1208">Add to Cart</text></g><g id="elem_UC_ViewCart"><ellipse cx="197.758" cy="177.5364" fill="#F1F1F1" rx="54.258" ry="15.5364" style="stroke:#181818;stroke-width:0.5;"/><text fill="#000000" font-family="sans-serif" font-size="14" lengthAdjust="spacing" textLength="60" x="164.758" y="182.053">View Cart</text></g><g id="elem_UC_Checkout"><ellipse cx="197.758" cy="243.5364" fill="#F1F1F1" rx="54.258" ry="15.5364" style="stroke:#181818;stroke-width:0.5;"/><text fill="#000000" font-family="sans-serif" font-size="14" lengthAdjust="spacing" textLength="60" x="164.758" y="248.053">Checkout</text></g><g id="elem_UC_ManageUsers"><ellipse cx="198.2113" cy="44.6423" fill="#F1F1F1" rx="71.2113" ry="16.6423" style="stroke:#181818;stroke-width:0.5;"/><text fill="#000000" font-family="sans-serif" font-size="14" lengthAdjust="spacing" textLength="91" x="149.7113" y="49.1589">Manage Users</text></g><!--link Customer to UC_AddCart--><g id="link_Customer_UC_AddCart"><path d="M67.13,165.24 C94.87,153.76 130.6956,138.9335 159.2456,127.1235 " fill="none" id="Customer-to-UC_AddCart" style="stroke:#181818;stroke-width:1.0;"/><polygon fill="#181818" points="164.79,124.83,154.9445,124.574,160.1697,126.7412,158.0024,131.9665,164.79,124.83" style="stroke:#181818;stroke-width:1.0;"/></g><!--link Customer to UC_ViewCart--><g id="link_Customer_UC_ViewCart"><path d="M67.13,177.5 C88.48,177.5 111.89,177.5 137.33,177.5 " fill="none" id="Customer-to-UC_ViewCart" style="stroke:#181818;stroke-width:1.0;"/><polygon fill="#181818" points="143.33,177.5,134.33,173.5,138.33,177.5,134.33,181.5,143.33,177.5" style="stroke:#181818;stroke-width:1.0;"/></g><!--link Customer to UC_Checkout--><g id="link_Customer_UC_Checkout"><path d="M67.13,189.76 C95.42,201.46 132.3056,216.7366 160.9056,228.5666 " fill="none" id="Customer-to-UC_Checkout" style="stroke:#181818;stroke-width:1.0;"/><polygon fill="#181818" points="166.45,230.86,159.6623,223.7237,161.8297,228.9489,156.6045,231.1162,166.45,230.86" style="stroke:#181818;stroke-width:1.0;"/></g><!--link Admin to UC_ManageUsers--><g id="link_Admin_UC_ManageUsers"><path d="M56.11,44.5 C73.61,44.5 94.94,44.5 120.88,44.5 " fill="none" id="Admin-to-UC_ManageUsers" style="stroke:#181818;stroke-width:1.0;"/><polygon fill="#181818" points="126.88,44.5,117.88,40.5,121.88,44.5,117.88,48.5,126.88,44.5" style="stroke:#181818;stroke-width:1.0;"/></g><!--SRC=[NO-x3i8m34LtVuNLlR-0L6LcB2ko4jD6q4Ho7F7xa4BIntYFZtNj5pyKDQBuQLPqNjYgZm78QXGqEMbSMFvnS8iF03cnfSJO3SwLNKEY7LB2qTo_gCJDkNb-7um2ZegPsJvZRaRDct6bG1FZc5XIjNviHG3rKEpxo_wCCs_bvq7hXFN9YdSb7m00]--></g></svg>